# xmcd CD database file
#
# Track frame offsets:
#	150
#	21337
#	38662
#	58987
#	75962
#	91940
#	112222
#	134510
#	153040
#	161192
#
# Disc length: 2443 seconds
#
# Revision: 0
# Processed by: cddbd v1.5PL3 Copyright (c) Steve Scherf et al.
# Submitted via: CDex 1.50beta8
#
DISCID=7c09890a
DTITLE=つみきみほ - つみきみほ
DYEAR=1988
DGENRE=Pop
TTITLE0=おまじない
TTITLE1=少年
TTITLE2=星の人
TTITLE3=サヨナラのあくる日
TTITLE4=楽園
TTITLE5=森へ帰ろう
TTITLE6=エンジェルの苺ワイン
TTITLE7=♯
TTITLE8=CASTLE ON A CLOUD
TTITLE9=時代よ変われ
EXTD=YEAR: 1988
EXTT0=
EXTT1=
EXTT2=
EXTT3=
EXTT4=
EXTT5=
EXTT6=
EXTT7=
EXTT8=
EXTT9=
PLAYORDER=
